<?xml version="1.0" encoding="UTF-8"?>
<svg width="62px" height="50px" viewBox="0 0 62 50" version="1.1" xmlns="http://www.w3.org/2000/svg" xmlns:xlink="http://www.w3.org/1999/xlink">
    <!-- Generator: Sketch 52.2 (67145) - http://www.bohemiancoding.com/sketch -->
    <title>Group 4</title>
    <desc>Created with Sketch.</desc>
    <g id="Page-1" stroke="none" stroke-width="1" fill="none" fill-rule="evenodd">
        <g id="Desktop" transform="translate(-42.000000, -1292.000000)" fill="#ED6A5A">
            <g id="Group" transform="translate(42.000000, 1048.000000)">
                <g id="Group-4" transform="translate(0.000000, 244.000000)">
                    <path d="M32.95,41.6577 L46.657,41.6577 L46.657,32.1787 L32.95,32.1787 L32.95,41.6577 Z M31.81,43.9387 L47.798,43.9387 C48.426,43.9387 48.938,43.4267 48.938,42.7977 L48.938,31.0387 C48.938,30.4097 48.426,29.8987 47.798,29.8977 L31.81,29.8977 C31.181,29.8987 30.67,30.4097 30.67,31.0387 L30.67,42.7977 C30.67,43.4267 31.181,43.9387 31.81,43.9387 Z" id="Fill-1"></path>
                    <path d="M58.5271,22.6561 C57.4121,23.2251 55.6061,23.9811 52.8041,23.9811 C50.0361,23.9811 47.8271,23.0811 46.7561,22.5441 L46.5071,22.4191 L44.6671,2.3071 L54.3251,2.3071 L58.8731,22.4801 L58.5271,22.6561 Z M52.5921,47.5921 L27.0161,47.5921 L27.0161,31.0381 C27.0161,30.4101 26.5051,29.8981 25.8751,29.8981 L13.5281,29.8981 C12.9001,29.8981 12.3881,30.4101 12.3871,31.0391 L12.3871,47.5921 L8.7351,47.5921 L8.7351,26.2541 L9.2141,26.2341 C11.6081,26.1341 13.7761,25.5461 15.6571,24.4881 L15.9021,24.3491 L16.1481,24.4871 C18.2421,25.6651 20.6431,26.2621 23.2831,26.2621 C25.9231,26.2621 28.3241,25.6651 30.4181,24.4881 L30.6631,24.3491 L30.9081,24.4881 C33.0011,25.6651 35.4011,26.2621 38.0441,26.2621 C40.6841,26.2621 43.0851,25.6651 45.1791,24.4871 L45.4241,24.3491 L45.6701,24.4871 C47.5531,25.5471 49.7211,26.1351 52.1131,26.2341 L52.5921,26.2541 L52.5921,47.5921 Z M14.6691,47.5921 L24.7351,47.5921 L24.7351,32.1791 L14.6691,32.1791 L14.6691,47.5921 Z M2.7981,22.6561 L2.4531,22.4791 L7.0031,2.3071 L16.6591,2.3071 L14.8191,22.4191 L14.5711,22.5441 C13.5001,23.0811 11.2901,23.9811 8.5221,23.9811 C5.7181,23.9811 3.9131,23.2251 2.7981,22.6561 Z M18.9501,2.3071 L29.5221,2.3071 L29.5221,22.4521 L29.2431,22.5891 C28.1831,23.1091 26.0021,23.9811 23.2831,23.9811 C20.7551,23.9811 18.6991,23.2491 17.4201,22.6341 L17.1071,22.4841 L18.9501,2.3071 Z M31.8031,2.3071 L42.3771,2.3071 L44.2201,22.4841 L43.9081,22.6341 C42.6291,23.2491 40.5731,23.9811 38.0441,23.9811 C35.3251,23.9811 33.1421,23.1081 32.0831,22.5871 L31.8031,22.4501 L31.8031,2.3071 Z M56.3491,0.9161 C56.2301,0.3921 55.7731,0.0261 55.2371,0.0261 L43.6891,0.0261 C43.4101,-0.0089 43.3591,-0.0059 43.2261,0.0181 L30.9411,0.0261 C30.7871,0.0071 30.7171,0.0011 30.6431,0.0021 C30.5911,0.0031 30.5341,0.0091 30.4751,0.0181 L18.1841,0.0261 C18.0481,0.0091 17.9751,0.0031 17.9091,0.0031 C17.8471,0.0021 17.7871,0.0091 17.7261,0.0191 L6.0911,0.0261 C5.5541,0.0261 5.0971,0.3911 4.9781,0.9151 L0.0271,22.8621 C-0.0769,23.3251 0.1211,23.8111 0.5201,24.0691 C0.5441,24.0841 2.7681,25.5141 6.0351,26.0541 L6.4531,26.1231 L6.4531,48.7321 C6.4531,49.3611 6.9651,49.8731 7.5941,49.8731 L53.7331,49.8731 C54.3621,49.8731 54.8741,49.3611 54.8741,48.7321 L54.8741,26.1231 L55.2921,26.0541 C58.5591,25.5141 60.7841,24.0841 60.8051,24.0701 C61.2051,23.8111 61.4021,23.3251 61.2981,22.8611 L56.3491,0.9161 Z" id="Fill-3"></path>
                </g>
            </g>
        </g>
    </g>
</svg>