<?xml version="1.0" encoding="UTF-8"?>
<svg width="91px" height="53px" viewBox="0 0 91 53" version="1.1" xmlns="http://www.w3.org/2000/svg" xmlns:xlink="http://www.w3.org/1999/xlink">
    <!-- Generator: Sketch 52.2 (67145) - http://www.bohemiancoding.com/sketch -->
    <title>Group 2</title>
    <desc>Created with Sketch.</desc>
    <g id="Page-1" stroke="none" stroke-width="1" fill="none" fill-rule="evenodd">
        <g id="Desktop" transform="translate(-42.000000, -1048.000000)" fill="#ED6A5A">
            <g id="Group" transform="translate(42.000000, 1048.000000)">
                <g id="Group-2">
                    <path d="M66,20 L66,29 L78.517,29 L74.66,20 L66,20 Z M68,27 L68,22 L73.341,22 L75.484,27 L68,27 Z" id="Shape" fill-rule="nonzero"></path>
                    <path d="M35.471,36.825 C31.047,36.825 27.449,40.424 27.449,44.847 C27.449,49.27 31.048,52.87 35.471,52.87 C39.894,52.87 43.494,49.27 43.494,44.847 C43.494,40.424 39.895,36.825 35.471,36.825 Z M35.471,50.871 C32.151,50.871 29.449,48.169 29.449,44.848 C29.449,41.528 32.151,38.826 35.471,38.826 C38.792,38.826 41.494,41.528 41.494,44.848 C41.494,48.169 38.792,50.871 35.471,50.871 Z" id="Shape" fill-rule="nonzero"></path>
                    <circle id="Oval" cx="35.471" cy="44.848" r="2.007"></circle>
                    <path d="M84.357,27.067 L78.474,15.109 L62,15.109 L62,0 L17.002,0 L16.963,20 L13,20 L13,22 L16.959,22 L16.953,25 L8,25 L8,27 L16.949,27 L16.918,43 L25.7,43 L25.898,42.259 C27.053,37.946 30.988,34.934 35.467,34.934 C39.943,34.934 43.881,37.947 45.045,42.261 L45.245,43 L65.156,43 L65.356,42.261 C66.52,37.947 70.46,34.934 74.935,34.934 C79.414,34.934 83.348,37.946 84.503,42.259 L84.703,43 L91,43 L91,29.279 L84.357,27.067 Z M60,41 L46.752,41 C45.119,36.214 40.585,32.934 35.468,32.934 C30.345,32.934 25.815,36.213 24.192,41 L18.922,41 L18.949,27 L26,27 L26,25 L18.953,25 L18.959,22 L23,22 L23,20 L18.963,20 L18.998,2 L60,2 L60,41 Z M89,41 L86.212,41 C84.589,36.213 80.059,32.934 74.937,32.934 C69.819,32.934 65.285,36.214 63.652,41 L62,41 L62,17.109 L77.23,17.109 L82.932,28.7 L89,30.721 L89,41 Z" id="Shape" fill-rule="nonzero"></path>
                    <path d="M75.006,36.825 C70.582,36.825 66.984,40.424 66.984,44.847 C66.984,49.27 70.583,52.87 75.006,52.87 C79.429,52.87 83.029,49.27 83.029,44.847 C83.029,40.424 79.43,36.825 75.006,36.825 Z M75.006,50.871 C71.686,50.871 68.984,48.169 68.984,44.848 C68.984,41.528 71.686,38.826 75.006,38.826 C78.327,38.826 81.029,41.528 81.029,44.848 C81.029,48.169 78.327,50.871 75.006,50.871 Z" id="Shape" fill-rule="nonzero"></path>
                    <circle id="Oval" cx="75.006" cy="44.848" r="2.007"></circle>
                    <polygon id="Path" points="0 25 6 25 6 27 0 27"></polygon>
                </g>
            </g>
        </g>
    </g>
</svg>