<?xml version="1.0" encoding="UTF-8"?>
<svg width="49px" height="53px" viewBox="0 0 49 53" version="1.1" xmlns="http://www.w3.org/2000/svg" xmlns:xlink="http://www.w3.org/1999/xlink">
    <!-- Generator: Sketch 52.2 (67145) - http://www.bohemiancoding.com/sketch -->
    <title>Shape</title>
    <desc>Created with Sketch.</desc>
    <g id="Page-1" stroke="none" stroke-width="1" fill="none" fill-rule="evenodd">
        <g id="Desktop" transform="translate(-554.000000, -1048.000000)" fill="#ED6A5A" fill-rule="nonzero">
            <g id="Group" transform="translate(42.000000, 1048.000000)">
                <path d="M536.536457,0.00165363181 C536.685708,0.00907440416 536.821881,0.040112079 536.937497,0.0752724052 L560.270778,9.4984754 C560.702269,9.67470696 561.004779,10.1328395 560.999943,10.602757 L560.999943,42.4060377 C560.99761,42.8698359 560.696616,43.3179681 560.270778,43.4918851 L536.937497,52.915147 C536.660339,53.0282843 536.339658,53.0282843 536.062499,52.915147 L512.729218,43.4918851 C512.30338,43.3179681 512.002451,42.8698359 512.000053,42.4060377 L512.000053,10.602757 C511.995387,10.1328395 512.297728,9.67470696 512.729218,9.4984754 L536.062499,0.0752724052 C536.224864,0.0104819951 536.387205,-0.00574947205 536.536457,0.00165363181 Z M536.835976,3 L517,11.0545455 L524.274983,14 L543,5.50909091 L536.835976,3 Z M547.391527,7 L528,15.5930599 L536.105263,19 L556,10.6340694 L547.391527,7 Z M559,12 L538,20.5453429 L538,50 L559,41.4731641 L559,12 Z M514,12 L514,41.4731641 L535,50 L535,20.5453429 L526.833333,17.2273212 L526.833333,26.2731522 L522.166667,24.4936683 L522.166667,15.3180514 L514,12 Z" id="Shape"></path>
            </g>
        </g>
    </g>
</svg>