<?xml version="1.0" encoding="UTF-8"?>
<svg width="63px" height="51px" viewBox="0 0 63 51" version="1.1" xmlns="http://www.w3.org/2000/svg" xmlns:xlink="http://www.w3.org/1999/xlink">
    <!-- Generator: Sketch 52.2 (67145) - http://www.bohemiancoding.com/sketch -->
    <title>Group 12</title>
    <desc>Created with Sketch.</desc>
    <g id="Page-1" stroke="none" stroke-width="1" fill="none" fill-rule="evenodd">
        <g id="Desktop" transform="translate(-550.000000, -1293.000000)" fill="#ED6A5A">
            <g id="Group" transform="translate(42.000000, 1048.000000)">
                <g id="Group-12" transform="translate(508.000000, 244.000000)">
                    <g id="Group-3" transform="translate(0.000000, 0.338200)">
                        <path d="M47.1553,33.1218 L19.3603,33.1218 L14.0983,11.9108 L35.7453,11.9108 L35.1443,8.7938 L13.3153,8.7938 L11.5703,1.8138 C11.3913,1.1358 10.7903,0.6618 10.1083,0.6618 L1.5583,0.6618 C0.6843,0.6618 0.0003,1.3468 0.0003,2.2208 C0.0003,3.0648 0.7133,3.7788 1.5583,3.7788 L8.8453,3.7788 L16.7083,35.1558 C16.8863,35.8338 17.4883,36.3078 18.1703,36.3078 L49.8223,36.3078 L50.7473,33.1828 L50.0953,33.1668 C50.0953,33.1668 48.2553,33.1218 47.1553,33.1218" id="Fill-1"></path>
                    </g>
                    <path d="M22.4106,41.2251 C19.6236,41.2251 17.3566,43.4931 17.3566,46.2791 C17.3566,49.0661 19.6236,51.3311 22.4106,51.3311 C25.1976,51.3311 27.4636,49.0661 27.4636,46.2791 C27.4636,43.4931 25.1976,41.2251 22.4106,41.2251" id="Fill-4"></path>
                    <g id="Group-8" transform="translate(38.000000, 40.338200)">
                        <path d="M5.749,0.8806 C2.958,0.8806 0.689,3.1506 0.689,5.9416 C0.689,8.7316 2.958,11.0006 5.749,11.0006 C8.539,11.0006 10.81,8.7316 10.81,5.9416 C10.81,3.1506 8.539,0.8806 5.749,0.8806" id="Fill-6"></path>
                    </g>
                    <g id="Group-11" transform="translate(43.000000, 4.338200)">
                        <path d="M11.8213,13.0427 L18.0613,10.4797 L0.1063,0.1667 L0.0083,0.2017 L4.0993,20.4817 C4.1203,20.5107 4.1823,20.5247 4.2033,20.5157 L8.5913,15.3437 L16.1443,25.8027 L19.3643,23.4867 L11.8213,13.0427 Z" id="Fill-9"></path>
                    </g>
                </g>
            </g>
        </g>
    </g>
</svg>